<svg width="1000" height="400" viewBox="0 0 1000 400" fill="none" xmlns="http://www.w3.org/2000/svg">
<path d="M0 0H1000V400H0V0Z" fill="white"/>
<path d="M0 0H1000V400H0V0Z" fill="white"/>
<path d="M0 0H1000V400H0V0Z" fill="white"/>
<path d="M0 0H1000V400H0V0Z" fill="white"/>
<path d="M0 0H1000V400H0V0Z" fill="white"/>
<path d="M0 0H1000V400H0V0Z" fill="white"/>
<path d="M0 0H1000V400H0V0Z" fill="white"/>
<path d="M0 0H1000V400H0V0Z" fill="white"/>
<path d="M0 0H1000V400H0V0Z" fill="white"/>
<path d="M0 0H1000V400H0V0Z" fill="white"/>
<path d="M0 0H1000V400H0V0Z" fill="white"/>
<path d="M0 0H1000V400H0V0Z" fill="white"/>
<path d="M0 0H1000V400H0V0Z" fill="white"/>
<path d="M0 0H1000V400H0V0Z" fill="white"/>
<path d="M0 0H1000V400H0V0Z" fill="white"/>
<path d="M0 0H1000V400H0V0Z" fill="white"/>
<path d="M0 0H1000V400H0V0Z" fill="white"/>
<path d="M0 0H1000V400H0V0Z" fill="white"/>
<path d="M0 0H1000V400H0V0Z" fill="white"/>
<path d="M0 0H1000V400H0V0Z" fill="white"/>
<path d="M0 0H1000V400H0V0Z" fill="white"/>
<path d="M0 0H1000V400H0V0Z" fill="white"/>
<path d="M0 0H1000V400H0V0Z" fill="white"/>
<path d="M0 0H1000V400H0V0Z" fill="white"/>
<path d="M0 0H1000V400H0V0Z" fill="white"/>
<path d="M0 0H1000V400H0V0Z" fill="white"/>
<path d="M0 0H1000V400H0V0Z" fill="white"/>
<path d="M0 0H1000V400H0V0Z" fill="white"/>
<path d="M0 0H1000V400H0V0Z" fill="white"/>
<path d="M0 0H1000V400H0V0Z" fill="white"/>
<path d="M0 0H1000V400H0V0Z" fill="white"/>
<path d="M0 0H1000V400H0V0Z" fill="white"/>
<path d="M0 0H1000V400H0V0Z" fill="white"/>
<path d="M0 0H1000V400H0V0Z" fill="white"/>
<path d="M0 0H1000V400H0V0Z" fill="white"/>
<path d="M0 0H1000V400H0V0Z" fill="white"/>
<path d="M0 0H1000V400H0V0Z" fill="white"/>
<path d="M0 0H1000V400H0V0Z" fill="white"/>
<path d="M0 0H1000V400H0V0Z" fill="white"/>
<path d="M0 0H1000V400H0V0Z" fill="white"/>
<path d="M0 0H1000V400H0V0Z" fill="white"/>
<path d="M0 0H1000V400H0V0Z" fill="white"/>
<path d="M0 0H1000V400H0V0Z" fill="white"/>
<path d="M0 0H1000V400H0V0Z" fill="white"/>
<path d="M0 0H1000V400H0V0Z" fill="white"/>
<path d="M0 0H1000V400H0V0Z" fill="white"/>
<path d="M0 0H1000V400H0V0Z" fill="white"/>
<path d="M0 0H1000V400H0V0Z" fill="white"/>
<path d="M0 0H1000V400H0V0Z" fill="white"/>
<path d="M0 0H1000V400H0V0Z" fill="white"/>
<path d="M0 0H1000V400H0V0Z" fill="white"/>
<path d="M0 0H1000V400H0V0Z" fill="white"/>
<path d="M0 0H1000V400H0V0Z" fill="white"/>
<path d="M0 0H1000V400H0V0Z" fill="white"/>
<path d="M0 0H1000V400H0V0Z" fill="white"/>
<path d="M0 0H1000V400H0V0Z" fill="white"/>
<path d="M0 0H1000V400H0V0Z" fill="white"/>
<path d="M0 0H1000V400H0V0Z" fill="white"/>
<path d="M0 0H1000V400H0V0Z" fill="white"/>
<path d="M0 0H1000V400H0V0Z" fill="white"/>
<path d="M0 0H1000V400H0V0Z" fill="white"/>
<path d="M0 0H1000V400H0V0Z" fill="white"/>
<path d="M0 0H1000V400H0V0Z" fill="white"/>
<path d="M0 0H1000V400H0V0Z" fill="white"/>
<path d="M0 0H1000V400H0V0Z" fill="white"/>
<path d="M0 0H1000V400H0V0Z" fill="white"/>
<path d="M0 0H1000V400H0V0Z" fill="white"/>
<path d="M0 0H1000V400H0V0Z" fill="white"/>
<path d="M0 0H1000V400H0V0Z" fill="white"/>
<path d="M0 0H1000V400H0V0Z" fill="white"/>
<path d="M0 0H1000V400H0V0Z" fill="white"/>
<path d="M0 0H1000V400H0V0Z" fill="white"/>
<path d="M0 0H1000V400H0V0Z" fill="white"/>
<path d="M0 0H1000V400H0V0Z" fill="white"/>
<path d="M0 0H1000V400H0V0Z" fill="white"/>
<path d="M0 0H1000V400H0V0Z" fill="white"/>
<path d="M0 0H1000V400H0V0Z" fill="white"/>
<path d="M0 0H1000V400H0V0Z" fill="white"/>
<path d="M0 0H1000V400H0V0Z" fill="white"/>
<path d="M0 0H1000V400H0V0Z" fill="white"/>
<path d="M0 0H1000V400H0V0Z" fill="white"/>
<path d="M0 0H1000V400H0V0Z" fill="white"/>
<path d="M0 0H1000V400H0V0Z" fill="white"/>
<path d="M0 0H1000V400H0V0Z" fill="white"/>
<path d="M0 0H1000V400H0V0Z" fill="white"/>
<path d="M0 0H1000V400H0V0Z" fill="white"/>
<path d="M0 0H1000V400H0V0Z" fill="white"/>
<path d="M0 0H1000V400H0V0Z" fill="white"/>
<path d="M0 0H1000V400H0V0Z" fill="white"/>
<path d="M0 0H1000V400H0V0Z" fill="white"/>
<path d="M0 0H1000V400H0V0Z" fill="white"/>
<path d="M0 0H1000V400H0V0Z" fill="white"/>
<path d="M0 0H1000V400H0V0Z" fill="white"/>
<path d="M0 0H1000V400H0V0Z" fill="white"/>
<path d="M0 0H1000V400H0V0Z" fill="white"/>
<path d="M0 0H1000V400H0V0Z" fill="white"/>
<path d="M0 0H1000V400H0V0Z" fill="white"/>
<path d="M0 0H1000V400H0V0Z" fill="white"/>
<path d="M0 0H1000V400H0V0Z" fill="white"/>
<path d="M0 0H1000V400H0V0Z" fill="white"/>
<path d="M0 0H1000V400H0V0Z" fill="white"/>
<path d="M0 0H1000V400H0V0Z" fill="white"/>
<path d="M0 0H1000V400H0V0Z" fill="white"/>
<path d="M0 0H1000V400H0V0Z" fill="white"/>
<path d="M0 0H1000V400H0V0Z" fill="white"/>
<path d="M0 0H1000V400H0V0Z" fill="white"/>
<path d="M0 0H1000V400H0V0Z" fill="white"/>
<path d="M0 0H1000V400H0V0Z" fill="white"/>
<path d="M0 0H1000V400H0V0Z" fill="white"/>
<path d="M0 0H1000V400H0V0Z" fill="white"/>
<path d="M0 0H1000V400H0V0Z" fill="white"/>
<path d="M0 0H1000V400H0V0Z" fill="white"/>
<path d="M0 0H1000V400H0V0Z" fill="white"/>
<path d="M0 0H1000V400H0V0Z" fill="white"/>
<path d="M0 0H1000V400H0V0Z" fill="white"/>
<path d="M0 0H1000V400H0V0Z" fill="white"/>
<path d="M0 0H1000V400H0V0Z" fill="white"/>
<path d="M0 0H1000V400H0V0Z" fill="white"/>
<path d="M0 0H1000V400H0V0Z" fill="white"/>
<path d="M0 0H1000V400H0V0Z" fill="white"/>
<path d="M0 0H1000V400H0V0Z" fill="white"/>
<path d="M0 0H1000V400H0V0Z" fill="white"/>
<path d="M0 0H1000V400H0V0Z" fill="white"/>
<path d="M0 0H1000V400H0V0Z" fill="white"/>
<path d="M0 0H1000V400H0V0Z" fill="white"/>
<path d="M0 0H1000V400H0V0Z" fill="white"/>
<path d="M0 0H1000V400H0V0Z" fill="white"/>
<path d="M0 0H1000V400H0V0Z" fill="white"/>
<path d="M0 0H1000V400H0V0Z" fill="white"/>
<path d="M0 0H1000V400H0V0Z" fill="white"/>
<path d="M0 0H1000V400H0V0Z" fill="white"/>
<path d="M0 0H1000V400H0V0Z" fill="white"/>
<path d="M0 0H1000V400H0V0Z" fill="white"/>
<path d="M0 0H1000V400H0V0Z" fill="white"/>
<path d="M0 0H1000V400H0V0Z" fill="white"/>
<path d="M0 0H1000V400H0V0Z" fill="white"/>
<path d="M0 0H1000V400H0V0Z" fill="white"/>
<path d="M0 0H1000V400H0V0Z" fill="white"/>
<path d="M0 0H1000V400H0V0Z" fill="white"/>
<path d="M0 0H1000V400H0V0Z" fill="white"/>
<path d="M0 0H1000V400H0V0Z" fill="white"/>
<path d="M0 0H1000V400H0V0Z" fill="white"/>
<path d="M0 0H1000V400H0V0Z" fill="white"/>
<path d="M0 0H1000V400H0V0Z" fill="white"/>
<path d="M0 0H1000V400H0V0Z" fill="white"/>
<path d="M0 0H1000V400H0V0Z" fill="white"/>
<path d="M0 0H1000V400H0V0Z" fill="white"/>
<path d="M0 0H1000V400H0V0Z" fill="white"/>
<path d="M0 0H1000V400H0V0Z" fill="white"/>
<path d="M0 0H1000V400H0V0Z" fill="white"/>
<path d="M0 0H1000V400H0V0Z" fill="white"/>
<path d="M0 0H1000V400H0V0Z" fill="white"/>
<path d="M0 0H1000V400H0V0Z" fill="white"/>
<path d="M0 0H1000V400H0V0Z" fill="white"/>
<path d="M0 0H1000V400H0V0Z" fill="white"/>
<path d="M0 0H1000V400H0V0Z" fill="white"/>
<path d="M0 0H1000V400H0V0Z" fill="white"/>
<path d="M0 0H1000V400H0V0Z" fill="white"/>
<path d="M0 0H1000V400H0V0Z" fill="white"/>
<path d="M0 0H1000V400H0V0Z" fill="white"/>
<path d="M0 0H1000V400H0V0Z" fill="white"/>
<path d="M0 0H1000V400H0V0Z" fill="white"/>
<path d="M0 0H1000V400H0V0Z" fill="white"/>
<path d="M0 0H1000V400H0V0Z" fill="white"/>
<path d="M0 0H1000V400H0V0Z" fill="white"/>
<path d="M0 0H1000V400H0V0Z" fill="white"/>
<path d="M0 0H1000V400H0V0Z" fill="white"/>
<path d="M0 0H1000V400H0V0Z" fill="white"/>
<path d="M0 0H1000V400H0V0Z" fill="white"/>
<path d="M0 0H1000V400H0V0Z" fill="white"/>
<path d="M0 0H1000V400H0V0Z" fill="white"/>
<path d="M0 0H1000V400H0V0Z" fill="white"/>
<path d="M0 0H1000V400H0V0Z" fill="white"/>
<path d="M0 0H1000V400H0V0Z" fill="white"/>
<path d="M0 0H1000V400H0V0Z" fill="white"/>
<path d="M0 0H1000V400H0V0Z" fill="white"/>
<path d="M0 0H1000V400H0V0Z" fill="white"/>
<path d="M0 0H1000V400H0V0Z" fill="white"/>
<path d="M0 0H1000V400H0V0Z" fill="white"/>
<path d="M0 0H1000V400H0V0Z" fill="white"/>
<path d="M0 0H1000V400H0V0Z" fill="white"/>
<path d="M0 0H1000V400H0V0Z" fill="white"/>
<path d="M0 0H1000V400H0V0Z" fill="white"/>
<path d="M0 0H1000V400H0V0Z" fill="white"/>
<path d="M0 0H1000V400H0V0Z" fill="white"/>
<path d="M0 0H1000V400H0V0Z" fill="white"/>
<path d="M0 0H1000V400H0V0Z" fill="white"/>
<path d="M0 0H1000V400H0V0Z" fill="white"/>
<path d="M0 0H1000V400H0V0Z" fill="white"/>
<path d="M0 0H1000V400H0V0Z" fill="white"/>
<path d="M0 0H1000V400H0V0Z" fill="white"/>
<path d="M0 0H1000V400H0V0Z" fill="white"/>
<path d="M0 0H1000V400H0V0Z" fill="white"/>
<path d="M0 0H1000V400H0V0Z" fill="white"/>
<path d="M0 0H1000V400H0V0Z" fill="white"/>
<path d="M0 0H1000V400H0V0Z" fill="white"/>
<path d="M0 0H1000V400H0V0Z" fill="white"/>
<path d="M0 0H1000V400H0V0Z" fill="white"/>
<path d="M0 0H1000V400H0V0Z" fill="white"/>
<path d="M0 0H1000V400H0V0Z" fill="white"/>
<path d="M0 0H1000V400H0V0Z" fill="white"/>
<path d="M0 0H1000V400H0V0Z" fill="white"/>
<path d="M0 0H1000V400H0V0Z" fill="white"/>
<path d="M0 0H1000V400H0V0Z" fill="white"/>
<path d="M0 0H1000V400H0V0Z" fill="white"/>
<path d="M0 0H1000V400H0V0Z" fill="white"/>
<path d="M0 0H1000V400H0V0Z" fill="white"/>
<path d="M0 0H1000V400H0V0Z" fill="white"/>
<path d="M0 0H1000V400H0V0Z" fill="white"/>
<path d="M0 0H1000V400H0V0Z" fill="white"/>
<path d="M0 0H1000V400H0V0Z" fill="white"/>
<path d="M0 0H1000V400H0V0Z" fill="white"/>
<path d="M0 0H1000V400H0V0Z" fill="white"/>
<path d="M0 0H1000V400H0V0Z" fill="white"/>
<path d="M0 0H1000V400H0V0Z" fill="white"/>
<path d="M0 0H1000V400H0V0Z" fill="white"/>
<path d="M0 0H1000V400H0V0Z" fill="white"/>
<path d="M0 0H1000V400H0V0Z" fill="white"/>
<path d="M0 0H1000V400H0V0Z" fill="white"/>
<path d="M0 0H1000V400H0V0Z" fill="white"/>
<path d="M0 0H1000V400H0V0Z" fill="white"/>
<path d="M0 0H1000V400H0V0Z" fill="white"/>
<path d="M0 0H1000V400H0V0Z" fill="white"/>
<path d="M0 0H1000V400H0V0Z" fill="white"/>
<path d="M0 0H1000V400H0V0Z" fill="white"/>
<path d="M0 0H1000V400H0V0Z" fill="white"/>
<path d="M0 0H1000V400H0V0Z" fill="white"/>
<path d="M0 0H1000V400H0V0Z" fill="white"/>
<path d="M0 0H1000V400H0V0Z" fill="white"/>
<path d="M0 0H1000V400H0V0Z" fill="white"/>
<path d="M0 0H1000V400H0V0Z" fill="white"/>
<path d="M0 0H1000V400H0V0Z" fill="white"/>
<path d="M0 0H1000V400H0V0Z" fill="white"/>
<path d="M0 0H1000V400H0V0Z" fill="white"/>
<path d="M0 0H1000V400H0V0Z" fill="white"/>
<path d="M0 0H1000V400H0V0Z" fill="white"/>
<path d="M0 0H1000V400H0V0Z" fill="white"/>
<path d="M0 0H1000V400H0V0Z" fill="white"/>
<path d="M0 0H1000V400H0V0Z" fill="white"/>
<path d="M0 0H1000V400H0V0Z" fill="white"/>
<path d="M0 0H1000V400H0V0Z" fill="white"/>
<path d="M0 0H1000V400H0V0Z" fill="white"/>
<path d="M0 0H1000V400H0V0Z" fill="white"/>
<path d="M0 0H1000V400H0V0Z" fill="white"/>
<path d="M0 0H1000V400H0V0Z" fill="white"/>
<path d="M0 0H1000V400H0V0Z" fill="white"/>
<path d="M0 0H1000V400H0V0Z" fill="white"/>
<path d="M0 0H1000V400H0V0Z" fill="white"/>
<path d="M0 0H1000V400H0V0Z" fill="white"/>
<path d="M0 0H1000V400H0V0Z" fill="white"/>
<path d="M0 0H1000V400H0V0Z" fill="white"/>
<path d="M0 0H1000V400H0V0Z" fill="white"/>
<path d="M0 0H1000V400H0V0Z" fill="white"/>
<path d="M0 0H1000V400H0V0Z" fill="white"/>
<path d="M0 0H1000V400H0V0Z" fill="white"/>
<path d="M0 0H1000V400H0V0Z" fill="white"/>
<path d="M0 0H1000V400H0V0Z" fill="white"/>
<path d="M0 0H1000V400H0V0Z" fill="white"/>
<path d="M0 0H1000V400H0V0Z" fill="white"/>
<path d="M0 0H1000V400H0V0Z" fill="white"/>
<path d="M0 0H1000V400H0V0Z" fill="white"/>
<path d="M0 0H1000V400H0V0Z" fill="white"/>
<path d="M0 0H1000V400H0V0Z" fill="white"/>
<path d="M0 0H1000V400H0V0Z" fill="white"/>
<path d="M0 0H1000V400H0V0Z" fill="white"/>
<path d="M0 0H1000V400H0V0Z" fill="white"/>
<path d="M0 0H1000V400H0V0Z" fill="white"/>
<path d="M0 0H1000V400H0V0Z" fill="white"/>
<path d="M0 0H1000V400H0V0Z" fill="white"/>
<path d="M0 0H1000V400H0V0Z" fill="white"/>
<path d="M0 0H1000V400H0V0Z" fill="white"/>
<path d="M0 0H1000V400H0V0Z" fill="white"/>
<path d="M0 0H1000V400H0V0Z" fill="white"/>
<path d="M0 0H1000V400H0V0Z" fill="white"/>
<path d="M0 0H1000V400H0V0Z" fill="white"/>
<path d="M0 0H1000V400H0V0Z" fill="white"/>
<path d="M0 0H1000V400H0V0Z" fill="white"/>
<path d="M0 0H1000V400H0V0Z" fill="white"/>
<path d="M0 0H1000V400H0V0Z" fill="white"/>
<path d="M0 0H1000V400H0V0Z" fill="white"/>
<path d="M0 0H1000V400H0V0Z" fill="white"/>
<path d="M0 0H1000V400H0V0Z" fill="white"/>
<path d="M0 0H1000V400H0V0Z" fill="white"/>
<path d="M0 0H1000V400H0V0Z" fill="white"/>
<path d="M0 0H1000V400H0V0Z" fill="white"/>
<path d="M0 0H1000V400H0V0Z" fill="white"/>
<path d="M0 0H1000V400H0V0Z" fill="white"/>
<path d="M0 0H1000V400H0V0Z" fill="white"/>
<path d="M0 0H1000V400H0V0Z" fill="white"/>
<path d="M0 0H1000V400H0V0Z" fill="white"/>
<path d="M0 0H1000V400H0V0Z" fill="white"/>
<path d="M0 0H1000V400H0V0Z" fill="white"/>
<path d="M0 0H1000V400H0V0Z" fill="white"/>
<path d="M0 0H1000V400H0V0Z" fill="white"/>
<path d="M0 0H1000V400H0V0Z" fill="white"/>
<path d="M0 0H1000V400H0V0Z" fill="white"/>
<path d="M0 0H1000V400H0V0Z" fill="white"/>
<path d="M0 0H1000V400H0V0Z" fill="white"/>
<path d="M0 0H1000V400H0V0Z" fill="white"/>
<path d="M0 0H1000V400H0V0Z" fill="white"/>
<path d="M0 0H1000V400H0V0Z" fill="white"/>
<path d="M0 0H1000V400H0V0Z" fill="white"/>
<path d="M0 0H1000V400H0V0Z" fill="white"/>
<path d="M0 0H1000V400H0V0Z" fill="white"/>
<path d="M0 0H1000V400H0V0Z" fill="white"/>
<path d="M0 0H1000V400H0V0Z" fill="white"/>
<path d="M0 0H1000V400H0V0Z" fill="white"/>
<path d="M0 0H1000V400H0V0Z" fill="white"/>
<path d="M0 0H1000V400H0V0Z" fill="white"/>
<path d="M0 0H1000V400H0V0Z" fill="white"/>
<path d="M0 0H1000V400H0V0Z" fill="white"/>
<path d="M0 0H1000V400H0V0Z" fill="white"/>
<path d="M0 0H1000V400H0V0Z" fill="white"/>
<path d="M0 0H1000V400H0V0Z" fill="white"/>
<path d="M0 0H1000V400H0V0Z" fill="white"/>
<path d="M0 0H1000V400H0V0Z" fill="white"/>
<path d="M0 0H1000V400H0V0Z" fill="white"/>
<path d="M0 0H1000V400H0V0Z" fill="white"/>
<path d="M0 0H1000V400H0V0Z" fill="white"/>
<path d="M0 0H1000V400H0V0Z" fill="white"/>
<path d="M0 0H1000V400H0V0Z" fill="white"/>
<path d="M0 0H1000V400H0V0Z" fill="white"/>
<path d="M0 0H1000V400H0V0Z" fill="white"/>
<path d="M0 0H1000V400H0V0Z" fill="white"/>
<path d="M0 0H1000V400H0V0Z" fill="white"/>
<path d="M0 0H1000V400H0V0Z" fill="white"/>
<path d="M0 0H1000V400H0V0Z" fill="white"/>
<path d="M0 0H1000V400H0V0Z" fill="white"/>
<path d="M0 0H1000V400H0V0Z" fill="white"/>
<path d="M500 200C500 200 500 200 500 200C500 200 500 200 500 200Z" fill="#31348D"/>
<path d="M500 200C500 200 500 200 500 200Z" fill="#31348D"/>
<path d="M500 200C500 200 500 200 500 200Z" fill="#31348D"/>
<path d="M500 200C500 200 500 200 500 200Z" fill="#31348D"/>
<path d="M500 200C500 200 500 200 500 200Z" fill="#31348D"/>
<path d="M500 200C500 200 500 200 500 200Z" fill="#31348D"/>
<path d="M500 200C500 200 500 200 500 200Z" fill="#31348D"/>
<path d="M500 200C500 200 500 200 500 200Z" fill="#31348D"/>
<path d="M500 200C500 200 500 200 500 200Z" fill="#31348D"/>
<path d="M500 200C500 200 500 200 500 200Z" fill="#31348D"/>
<path d="M500 200C500 200 500 200 500 200Z" fill="#31348D"/>
<path d="M500 200C500 200 500 200 500 200Z" fill="#31348D"/>
<path d="M500 200C500 200 500 200 500 200Z" fill="#31348D"/>
<path d="M500 200C500 200 500 200 500 200Z" fill="#31348D"/>
<path d="M500 200C500 200 500 200 500 200Z" fill="#31348D"/>
<path d="M500 200C500 200 500 200 500 200Z" fill="#31348D"/>
<path d="M500 200C500 200 500 200 500 200Z" fill="#31348D"/>
<path d="M500 200C500 200 500 200 500 200Z" fill="#31348D"/>
<path d="M500 200C500 200 500 200 500 200Z" fill="#31348D"/>
<path d="M500 200C500 200 500 200 500 200Z" fill="#31348D"/>
<path d="M500 200C500 200 500 200 500 200Z" fill="#31348D"/>
<path d="M500 200C500 200 500 200 500 200Z" fill="#31348D"/>
<path d="M500 200C500 200 500 200 500 200Z" fill="#31348D"/>
<path d="M500 200C500 200 500 200 500 200Z" fill="#31348D"/>
<path d="M500 200C500 200 500 200 500 200Z" fill="#31348D"/>
<path d="M500 200C500 200 500 200 500 200Z" fill="#31348D"/>
<path d="M500 200C500 200 500 200 500 200Z" fill="#31348D"/>
<path d="M500 200C500 200 500 200 500 200Z" fill="#31348D"/>
<path d="M500 200C500 200 500 200 500 200Z" fill="#31348D"/>
<path d="M500 200C500 200 500 200 500 200Z" fill="#31348D"/>
<path d="M500 200C500 200 500 200 500 200Z" fill="#31348D"/>
<path d="M500 200C500 200 500 200 500 200Z" fill="#31348D"/>
<path d="M500 200C500 200 500 200 500 200Z" fill="#31348D"/>
<path d="M500 200C500 200 500 200 500 200Z" fill="#31348D"/>
<path d="M500 200C500 200 500 200 500 200Z" fill="#31348D"/>
<path d="M500 200C500 200 500 200 500 200Z" fill="#31348D"/>
<path d="M500 200C500 200 500 200 500 200Z" fill="#31348D"/>
<path d="M500 200C500 200 500 200 500 200Z" fill="#31348D"/>
<path d="M500 200C500 200 500 200 500 200Z" fill="#31348D"/>
<path d="M500 200C500 200 500 200 500 200Z" fill="#31348D"/>
<path d="M500 200C500 200 500 200 500 200Z" fill="#31348D"/>
<path d="M500 200C500 200 500 200 500 200Z" fill="#31348D"/>
<path d="M500 200C500 200 500 200 500 200Z" fill="#31348D"/>
<path d="M500 200C500 200 500 200 500 200Z" fill="#31348D"/>
<path d="M500 200C500 200 500 200 500 200Z" fill="#31348D"/>
<path d="M500 200C500 200 500 200 500 200Z" fill="#31348D"/>
<path d="M500 200C500 200 500 200 500 200Z" fill="#31348D"/>
<path d="M500 200C500 200 500 200 500 200Z" fill="#31348D"/>
<path d="M500 200C500 200 500 200 500 200Z" fill="#31348D"/>
<path d="M500 200C500 200 500 200 500 200Z" fill="#31348D"/>
<path d="M500 200C500 200 500 200 500 200Z" fill="#31348D"/>
<path d="M500 200C500 200 500 200 500 200Z" fill="#31348D"/>
<path d="M500 200C500 200 500 200 500 200Z" fill="#31348D"/>
<path d="M500 200C500 200 500 200 500 200Z" fill="#31348D"/>
<path d="M500 200C500 200 500 200 500 200Z" fill="#31348D"/>
<path d="M500 200C500 200 500 200 500 200Z" fill="#31348D"/>
<path d="M500 200C500 200 500 200 500 200Z" fill="#31348D"/>
<path d="M500 200C500 200 500 200 500 200Z" fill="#31348D"/>
<path d="M500 200C500 200 500 200 500 200Z" fill="#31348D"/>
<path d="M500 200C500 200 500 200 500 200Z" fill="#31348D"/>
<path d="M500 200C500 200 500 200 500 200Z" fill="#31348D"/>
<path d="M500 200C500 200 500 200 500 200Z" fill="#31348D"/>
<path d="M500 200C500 200 500 200 500 200Z" fill="#31348D"/>
<path d="M500 200C500 200 500 200 500 200Z" fill="#31348D"/>
<path d="M500 200C500 200 500 200 500 200Z" fill="#31348D"/>
<path d="M500 200C500 200 500 200 500 200Z" fill="#31348D"/>
<path d="M500 200C500 200 500 200 500 200Z" fill="#31348D"/>
<path d="M500 200C500 200 500 200 500 200Z" fill="#31348D"/>
<path d="M500 200C500 200 500 200 500 200Z" fill="#31348D"/>
<path d="M500 200C500 200 500 200 500 200Z" fill="#31348D"/>
<path d="M500 200C500 200 500 200 500 200Z" fill="#31348D"/>
<path d="M500 200C500 200 500 200 500 200Z" fill="#31348D"/>
<path d="M500 200C500 200 500 200 500 200Z" fill="#31348D"/>
<path d="M500 200C500 200 500 200 500 200Z" fill="#31348D"/>
<path d="M500 200C500 200 500 200 500 200Z" fill="#31348D"/>
<path d="M500 200C500 200 500 200 500 200Z" fill="#31348D"/>
<path d="M500 200C500 200 500 200 500 200Z" fill="#31348D"/>
<path d="M500 200C500 200 500 200 500 200Z" fill="#31348D"/>
<path d="M500 200C500 200 500 200 500 200Z" fill="#31348D"/>
<path d="M500 200C500 200 500 200 500 200Z" fill="#31348D"/>
<path d="M500 200C500 200 500 200 500 200Z" fill="#31348D"/>
<path d="M500 200C500 200 500 200 500 200Z" fill="#31348D"/>
<path d="M500 200C500 200 500 200 500 200Z" fill="#31348D"/>
<path d="M500 200C500 200 500 200 500 200Z" fill="#31348D"/>
<path d="M500 200C500 200 500 200 500 200Z" fill="#31348D"/>
<path d="M500 200C500 200 500 200 500 200Z" fill="#31348D"/>
<path d="M500 200C500 200 500 200 500 200Z" fill="#31348D"/>
<path d="M500 200C500 200 500 200 500 200Z" fill="#31348D"/>
<path d="M500 200C500 200 500 200 500 200Z" fill="#31348D"/>
<path d="M500 200C500 200 500 200 500 200Z" fill="#31348D"/>
<path d="M500 200C500 200 500 200 500 200Z" fill="#31348D"/>
<path d="M500 200C500 200 500 200 500 200Z" fill="#31348D"/>
<path d="M500 200C500 200 500 200 500 200Z" fill="#31348D"/>
<path d="M500 200C500 200 500 200 500 200Z" fill="#31348D"/>
<path d="M500 200C500 200 500 200 500 200Z" fill="#31348D"/>
<path d="M500 200C500 200 500 200 500 200Z" fill="#31348D"/>
<path d="M500 200C500 200 500 200 500 200Z" fill="#31348D"/>
<path d="M500 200C500 200 500 200 500 200Z" fill="#31348D"/>
<path d="M500 200C500 200 500 200 500 200Z" fill="#31348D"/>
<path d="M500 200C500 200 500 200 500 200Z" fill="#31348D"/>
<path d="M500 200C500 200 500 200 500 200Z" fill="#31348D"/>
<path d="M500 200C500 200 500 200 500 200Z" fill="#31348D"/>
<path d="M500 200C500 200 500 200 500 200Z" fill="#31348D"/>
<path d="M500 200C500 200 500 200 500 200Z" fill="#31348D"/>
<path d="M500 200C500 200 500 200 500 200Z" fill="#31348D"/>
<path d="M500 200C500 200 500 200 500 200Z" fill="#31348D"/>
<path d="M500 200C500 200 500 200 500 200Z" fill="#31348D"/>
<path d="M500 200C500 200 500 200 500 200Z" fill="#31348D"/>
<path d="M500 200C500 200 500 200 500 200Z" fill="#31348D"/>
<path d="M500 200C500 200 500 200 500 200Z" fill="#31348D"/>
<path d="M500 200C500 200 500 200 500 200Z" fill="#31348D"/>
<path d="M500 200C500 200 500 200 500 200Z" fill="#31348D"/>
<path d="M500 200C500 200 500 200 500 200Z" fill="#31348D"/>
<path d="M500 200C500 200 500 200 500 200Z" fill="#31348D"/>
<path d="M500 200C500 200 500 200 500 200Z" fill="#31348D"/>
<path d="M500 200C500 200 500 200 500 200Z" fill="#31348D"/>
<path d="M500 200C500 200 500 200 500 200Z" fill="#31348D"/>
<path d="M500 200C500 200 500 200 500 200Z" fill="#31348D"/>
<path d="M500 200C500 200 500 200 500 200Z" fill="#31348D"/>
<path d="M500 200C500 200 500 200 500 200Z" fill="#31348D"/>
<path d="M500 200C500 200 500 200 500 200Z" fill="#31348D"/>
<path d="M500 200C500 200 500 200 500 200Z" fill="#31348D"/>
<path d="M500 200C500 200 500 200 500 200Z" fill="#31348D"/>
<path d="M500 200C500 200 500 200 500 200Z" fill="#31348D"/>
<path d="M500 200C500 200 500 200 500 200Z" fill="#31348D"/>
<path d="M500 200C500 200 500 200 500 200Z" fill="#31348D"/>
<path d="M500 200C500 200 500 200 500 200Z" fill="#31348D"/>
<path d="M500 200C500 200 500 200 500 200Z" fill="#31348D"/>
<path d="M500 200C500 200 500 200 500 200Z" fill="#31348D"/>
<path d="M500 200C500 200 500 200 500 200Z" fill="#31348D"/>
<path d="M500 200C500 200 500 200 500 200Z" fill="#31348D"/>
<path d="M500 200C500 200 500 200 500 200Z" fill="#31348D"/>
<path d="M500 200C500 200 500 200 500 200Z" fill="#31348D"/>
<path d="M500 200C500 200 500 200 500 200Z" fill="#31348D"/>
<path d="M500 200C500 200 500 200 500 200Z" fill="#31348D"/>
<path d="M500 200C500 200 500 200 500 200Z" fill="#31348D"/>
<path d="M500 200C500 200 500 200 500 200Z" fill="#31348D"/>
<path d="M500 200C500 200 500 200 500 200Z" fill="#31348D"/>
<path d="M500 200C500 200 500 200 500 200Z" fill="#31348D"/>
<path d="M500 200C500 200 500 200 500 200Z" fill="#31348D"/>
<path d="M500 200C500 200 500 200 500 200Z" fill="#31348D"/>
<path d="M500 200C500 200 500 200 500 200Z" fill="#31348D"/>
<path d="M500 200C500 200 500 200 500 200Z" fill="#31348D"/>
<path d="M500 200C500 200 500 200 500 200Z" fill="#31348D"/>
<path d="M500 200C500 200 500 200 500 200Z" fill="#31348D"/>
<path d="M500 200C500 200 500 200 500 200Z" fill="#31348D"/>
<path d="M500 200C500 200 500 200 500 200Z" fill="#31348D"/>
<path d="M500 200C500 200 500 200 500 200Z" fill="#31348D"/>
<path d="M500 200C500 200 500 200 500 200Z" fill="#31348D"/>
<path d="M500 200C500 200 500 200 500 200Z" fill="#31348D"/>
<path d="M500 200C500 200 500 200 500 200Z" fill="#31348D"/>
<path d="M500 200C500 200 500 200 500 200Z" fill="#31348D"/>
<path d="M500 200C500 200 500 200 500 200Z" fill="#31348D"/>
<path d="M500 200C500 200 500 200 500 200Z" fill="#31348D"/>
<path d="M500 200C500 200 500 200 500 200Z" fill="#31348D"/>
<path d="M500 200C500 200 500 200 500 200Z" fill="#31348D"/>
<path d="M500 200C500 200 500 200 500 200Z" fill="#31348D"/>
<path d="M500 200C500 200 500 200 500 200Z" fill="#31348D"/>
<path d="M500 200C500 200 500 200 500 200Z" fill="#31348D"/>
<path d="M500 200C500 200 500 200 500 200Z" fill="#31348D"/>
<path d="M500 200C500 200 500 200 500 200Z" fill="#31348D"/>
<path d="M500 200C500 200 500 200 500 200Z" fill="#31348D"/>
<path d="M500 200C500 200 500 200 500 200Z" fill="#31348D"/>
<path d="M500 200C500 200 500 200 500 200Z" fill="#31348D"/>
<path d="M500 200C500 200 500 200 500 200Z" fill="#31348D"/>
<path d="M500 200C500 200 500 200 500 200Z" fill="#31348D"/>
<path d="M500 200C500 200 500 200 500 200Z" fill="#31348D"/>
<path d="M500 200C500 200 500 200 500 200Z" fill="#31348D"/>
<path d="M500 200C500 200 500 200 500 200Z" fill="#31348D"/>
<path d="M500 200C500 200 500 200 500 200Z" fill="#31348D"/>
<path d="M500 200C500 200 500 200 500 200Z" fill="#31348D"/>
<path d="M500 200C500 200 500 200 500 200Z" fill="#31348D"/>
<path d="M500 200C500 200 500 200 500 200Z" fill="#31348D"/>
<path d="M500 200C500 200 500 200 500 200Z" fill="#31348D"/>
<path d="M500 200C500 200 500 200 500 200Z" fill="#31348D"/>
<path d="M500 200C500 200 500 200 500 200Z" fill="#31348D"/>
<path d="M500 200C500 200 500 200 500 200Z" fill="#31348D"/>
<path d="M500 200C500 200 500 200 500 200Z" fill="#31348D"/>
<path d="M500 200C500 200 500 200 500 200Z" fill="#31348D"/>
<path d="M500 200C500 200 500 200 500 200Z" fill="#31348D"/>
<path d="M500 200C500 200 500 200 500 200Z" fill="#31348D"/>
<path d="M500 200C500 200 500 200 500 200Z" fill="#31348D"/>
<path d="M500 200C500 200 500 200 500 200Z" fill="#31348D"/>
<path d="M500 200C500 200 500 200 500 200Z" fill="#31348D"/>
<path d="M500 200C500 200 500 200 500 200Z" fill="#31348D"/>
<path d="M500 200C500 200 500 200 500 200Z" fill="#31348D"/>
<path d="M500 200C500 200 500 200 500 200Z" fill="#31348D"/>
<path d="M500 200C500 200 500 200 500 200Z" fill="#31348D"/>
<path d="M500 200C500 200 500 200 500 200Z" fill="#31348D"/>
<path d="M500 200C500 200 500 200 500 200Z" fill="#31348D"/>
<path d="M500 200C500 200 500 200 500 200Z" fill="#31348D"/>
<path d="M500 200C500 200 500 200 500 200Z" fill="#31348D"/>
<path d="M500 200C500 200 500 200 500 200Z" fill="#31348D"/>
<path d="M500 200C500 200 500 200 500 200Z" fill="#31348D"/>
<path d="M500 200C500 200 500 200 500 200Z" fill="#31348D"/>
<path d="M500 200C500 200 500 200 500 200Z" fill="#31348D"/>
<path d="M500 200C500 200 500 200 500 200Z" fill="#31348D"/>
<path d="M500 200C500 200 500 200 500 200Z" fill="#31348D"/>
<path d="M500 200C500 200 500 200 500 200Z" fill="#31348D"/>
<path d="M500 200C500 200 500 200 500 200Z" fill="#31348D"/>
<path d="M500 200C500 200 500 200 500 200Z" fill="#31348D"/>
<path d="M500 200C500 200 500 200 500 200Z" fill="#31348D"/>
<path d="M500 200C500 200 500 200 500 200Z" fill="#31348D"/>
<path d="M500 200C500 200 500 200 500 200Z" fill="#31348D"/>
<path d="M500 200C500 200 500 200 500 200Z" fill="#31348D"/>
<path d="M500 200C500 200 500 200 500 200Z" fill="#31348D"/>
<path d="M500 200C500 200 500 200 500 200Z" fill="#31348D"/>
<path d="M500 200C500 200 500 200 500 200Z" fill="#31348D"/>
<path d="M500 200C500 200 500 200 500 200Z" fill="#31348D"/>
<path d="M500 200C500 200 500 200 500 200Z" fill="#31348D"/>
<path d="M500 200C500 200 500 200 500 200Z" fill="#31348D"/>
<path d="M500 200C500 200 500 200 500 200Z" fill="#31348D"/>
<path d="M500 200C500 200 500 200 500 200Z" fill="#31348D"/>
<path d="M500 200C500 200 500 200 500 200Z" fill="#31348D"/>
<path d="M500 200C500 200 500 200 500 200Z" fill="#31348D"/>
<path d="M500 200C500 200 500 200 500 200Z" fill="#31348D"/>
<path d="M500 200C500 200 500 200 500 200Z" fill="#31348D"/>
<path d="M500 200C500 200 500 200 500 200Z" fill="#31348D"/>
<path d="M500 200C500 200 500 200 500 200Z" fill="#31348D"/>
<path d="M500 200C500 200 500 200 500 200Z" fill="#31348D"/>
<path d="M500 200C500 200 500 200 500 200Z" fill="#31348D"/>
<path d="M500 200C500 200 500 200 500 200Z" fill="#31348D"/>
<path d="M500 200C500 200 500 200 500 200Z" fill="#31348D"/>
<path d="M500 200C500 200 500 200 500 200Z" fill="#31348D"/>
<path d="M500 200C500 200 500 200 500 200Z" fill="#31348D"/>
<path d="M500 200C500 200 500 200 500 200Z" fill="#31348D"/>
<path d="M500 200C500 200 500 200 500 200Z" fill="#31348D"/>
<path d="M500 200C500 200 500 200 500 200Z" fill="#31348D"/>
<path d="M500 200C500 200 500 200 500 200Z" fill="#31348D"/>
<path d="M500 200C500 200 500 200 500 200Z" fill="#31348D"/>
<path d="M500 200C500 200 500 200 500 200Z" fill="#31348D"/>
<path d="M500 200C500 200 500 200 500 200Z" fill="#31348D"/>
<path d="M500 200C500 200 500 200 500 200Z" fill="#31348D"/>
<path d="M500 200C500 200 500 200 500 200Z" fill="#31348D"/>
<path d="M500 200C500 200 500 200 500 200Z" fill="#31348D"/>
<path d="M500 200C500 200 500 200 500 200Z" fill="#31348D"/>
<path d="M500 200C500 200 500 200 500 200Z" fill="#31348D"/>
<path d="M500 200C500 200 500 200 500 200Z" fill="#31348D"/>
<path d="M500 200C500 200 500 200 500 200Z" fill="#31348D"/>
<path d="M500 200C500 200 500 200 500 200Z" fill="#31348D"/>
<path d="M500 200C500 200 500 200 500 200Z" fill="#31348D"/>
<path d="M500 200C500 200 500 200 500 200Z" fill="#31348D"/>
<path d="M500 200C500 200 500 200 500 200Z" fill="#31348D"/>
<path d="M500 200C500 200 500 200 500 200Z" fill="#31348D"/>
<path d="M500 200C500 200 500 200 500 200Z" fill="#31348D"/>
<path d="M500 200C500 200 500 200 500 200Z" fill="#31348D"/>
<path d="M500 200C500 200 500 200 500 200Z" fill="#31348D"/>
<path d="M500 200C500 200 500 200 500 200Z" fill="#31348D"/>
<path d="M500 200C500 200 500 200 500 200Z" fill="#31348D"/>
<path d="M500 200C500 200 500 200 500 200Z" fill="#31348D"/>
<path d="M500 200C500 200 500 200 500 200Z" fill="#31348D"/>
<path d="M500 200C500 200 500 200 500 200Z" fill="#31348D"/>
<path d="M500 200C500 200 500 200 500 200Z" fill="#31348D"/>
<path d="M500 200C500 200 500 200 500 200Z" fill="#31348D"/>
<path d="M500 200C500 200 500 200 500 200Z" fill="#31348D"/>
<path d="M500 200C500 200 500 200 500 200Z" fill="#31348D"/>
<path d="M500 200C500 200 500 200 500 200Z" fill="#31348D"/>
<path d="M500 200C500 200 500 200 500 200Z" fill="#31348D"/>
<path d="M500 200C500 200 500 200 500 200Z" fill="#31348D"/>
<path d="M500 200C500 200 500 200 500 200Z" fill="#31348D"/>
<path d="M500 200C500 200 500 200 500 200Z" fill="#31348D"/>
<path d="M500 200C500 200 500 200 500 200Z" fill="#31348D"/>
<path d="M500 200C500 200 500 200 500 200Z" fill="#31348D"/>
<path d="M500 200C500 200 500 200 500 200Z" fill="#31348D"/>
<path d="M500 200C500 200 500 200 500 200Z" fill="#31348D"/>
<path d="M500 200C500 200 500 200 500 200Z" fill="#31348D"/>
<path d="M500 200C500 200 500 200 500 200Z" fill="#31348D"/>
<path d="M500 200C500 200 500 200 500 200Z" fill="#31348D"/>
<path d="M500 200C500 200 500 200 500 200Z" fill="#31348D"/>
<path d="M500 200C500 200 500 200 500 200Z" fill="#31348D"/>
<path d="M500 200C500 200 500 200 500 200Z" fill="#31348D"/>
<path d="M500 200C500 200 500 200 500 200Z" fill="#31348D"/>
<path d="M500 200C500 200 500 200 500 200Z" fill="#31348D"/>
<path d="M500 200C500 200 500 200 500 200Z" fill="#31348D"/>
<path d="M500 200C500 200 500 200 500 200Z" fill="#31348D"/>
<path d="M500 200C500 200 500 200 500 200Z" fill="#31348D"/>
<path d="M500 200C500 200 500 200 500 200Z" fill="#31348D"/>
<path d="M500 200C500 200 500 200 500 200Z" fill="#31348D"/>
<path d="M500 200C500 200 500 200 500 200Z" fill="#31348D"/>
<path d="M500 200C500 200 500 200 500 200Z" fill="#31348D"/>
</svg>
